<svg width="60" height="60" viewBox="0 0 60 60" fill="none" xmlns="http://www.w3.org/2000/svg">
<path d="M39.375 0.0585938L60 10.3711V33.3691L56.25 31.4941V14.5605L41.25 22.0605V29.6191L37.5 31.4941V22.0605L22.5 14.5605V21.2109L18.75 19.3359V10.3711L39.375 0.0585938ZM39.375 18.8086L44.5605 16.2012L30.9961 8.4375L24.8145 11.543L39.375 18.8086ZM48.6035 14.209L53.9355 11.543L39.375 4.24805L35.0098 6.44531L48.6035 14.209ZM33.75 33.3691L30 35.2441V35.2148L18.75 40.8398V54.1699L30 48.5156V52.7344L16.875 59.2969L0 50.8301V31.0254L16.875 22.5879L33.75 31.0254V33.3691ZM15 54.1699V40.8398L3.75 35.2148V48.5156L15 54.1699ZM16.875 37.5879L27.6855 32.1973L16.875 26.7773L6.06445 32.1973L16.875 37.5879ZM33.75 37.5586L46.875 30.9961L60 37.5586V52.998L46.875 59.5605L33.75 52.998V37.5586ZM45 54.4336V45.498L37.5 41.748V50.6836L45 54.4336ZM56.25 50.6836V41.748L48.75 45.498V54.4336L56.25 50.6836ZM46.875 42.2461L53.9355 38.7012L46.875 35.1855L39.8145 38.7012L46.875 42.2461Z" fill="#273B98"/>
</svg>
